<svg width="22" height="38" viewBox="0 0 22 38" fill="none" xmlns="http://www.w3.org/2000/svg">
<g clip-path="url(#clip0_1227_79)">
<path d="M1.25757 36.1925C0.956286 35.8918 0.717257 35.5347 0.554167 35.1415C0.391077 34.7484 0.307129 34.3269 0.307129 33.9012C0.307129 33.4756 0.391077 33.0541 0.554167 32.661C0.717257 32.2678 0.956286 31.9107 1.25757 31.61L13.8676 19L1.25757 6.38999C0.649895 5.78231 0.308505 4.95813 0.308505 4.09874C0.308505 3.23936 0.649895 2.41516 1.25757 1.80749C1.86525 1.19981 2.68944 0.858425 3.54882 0.858425C4.40821 0.858425 5.23239 1.19981 5.84007 1.80749L20.7576 16.725C21.0589 17.0257 21.2979 17.3828 21.461 17.776C21.6241 18.1691 21.708 18.5906 21.708 19.0162C21.708 19.4419 21.6241 19.8634 21.461 20.2565C21.2979 20.6497 21.0589 21.0068 20.7576 21.3075L5.84007 36.225C4.60507 37.46 2.52507 37.46 1.25757 36.1925Z" fill="white"/>
</g>
<defs>
<clipPath id="clip0_1227_79">
<rect width="22" height="38" fill="white" transform="matrix(1 0 0 -1 0 38)"/>
</clipPath>
</defs>
</svg>
