<svg width="22" height="38" viewBox="0 0 22 38" fill="none" xmlns="http://www.w3.org/2000/svg">
<path d="M20.4504 1.81313C20.7517 2.1138 20.9908 2.47093 21.1538 2.8641C21.3169 3.25726 21.4009 3.67873 21.4009 4.10438C21.4009 4.53002 21.3169 4.95149 21.1538 5.34465C20.9908 5.73782 20.7517 6.09496 20.4504 6.39563L7.84044 19.0056L20.4504 31.6156C21.0581 32.2233 21.3995 33.0475 21.3995 33.9069C21.3995 34.7663 21.0581 35.5905 20.4504 36.1981C19.8428 36.8058 19.0186 37.1472 18.1592 37.1472C17.2998 37.1472 16.4756 36.8058 15.8679 36.1981L0.950434 21.2806C0.649147 20.98 0.410116 20.6228 0.247027 20.2297C0.0839369 19.8365 -7.34432e-06 19.415 -7.30711e-06 18.9894C-7.26989e-06 18.5637 0.0839371 18.1423 0.247027 17.7491C0.410117 17.3559 0.649148 16.9988 0.950434 16.6981L15.8679 1.78062C17.1029 0.545625 19.1829 0.545626 20.4504 1.81313Z" fill="white"/>
</svg>
